<svg xmlns="http://www.w3.org/2000/svg" viewBox="0 0 1024 1024" width="1024" height="1024" role="img" aria-label="Parche de misión — Misión Domuyo · Titan ATLAS"><title>Parche de misión — Misión Domuyo · Titan ATLAS</title>
  <defs>
    <radialGradient id="sky" cx=".5" cy=".25" r=".9"><stop offset="0" stop-color="#1B3A63"/><stop offset=".6" stop-color="#0A1628"/><stop offset="1" stop-color="#050B16"/></radialGradient>
    <clipPath id="in"><circle cx="512" cy="512" r="340"/></clipPath>
  </defs>
  <circle cx="512" cy="512" r="508" fill="#050B16"/>
  <circle cx="512" cy="512" r="496" fill="none" stroke="#FF5A1F" stroke-width="8"/>
  <circle cx="512" cy="512" r="352" fill="none" stroke="#38BDF8" stroke-width="6"/>
  <circle cx="512" cy="512" r="340" fill="url(#sky)"/>
  <g clip-path="url(#in)">
    <circle cx="828.66" cy="412.08" r="1.38" fill="#fff" opacity="0.43"/><circle cx="480.87" cy="244.81" r="1.46" fill="#fff" opacity="0.75"/><circle cx="519.75" cy="241.89" r="2.17" fill="#fff" opacity="0.68"/><circle cx="578.11" cy="308.21" r="1.55" fill="#fff" opacity="0.72"/><circle cx="487.43" cy="361.21" r="2.17" fill="#fff" opacity="0.58"/><circle cx="773.97" cy="314.76" r="1.05" fill="#fff" opacity="0.61"/><circle cx="754.53" cy="323.02" r="2.09" fill="#fff" opacity="0.65"/><circle cx="779.64" cy="296.37" r="1.54" fill="#fff" opacity="0.5"/><circle cx="611.05" cy="298.33" r="1.11" fill="#fff" opacity="0.48"/><circle cx="350.6" cy="466.5" r="2.67" fill="#fff" opacity="0.63"/><circle cx="471.85" cy="197.4" r="0.92" fill="#fff" opacity="0.46"/><circle cx="293.48" cy="350.74" r="1.64" fill="#fff" opacity="0.42"/><circle cx="577" cy="382.71" r="1.53" fill="#fff" opacity="0.51"/><circle cx="349.5" cy="221.25" r="1.83" fill="#fff" opacity="0.4"/><circle cx="366.27" cy="480.75" r="1.53" fill="#fff" opacity="0.55"/><circle cx="392.69" cy="558.27" r="2.03" fill="#fff" opacity="0.44"/><circle cx="697.85" cy="325.36" r="2.53" fill="#fff" opacity="0.68"/><circle cx="354.47" cy="287.95" r="1.81" fill="#fff" opacity="0.71"/><circle cx="705.05" cy="358.08" r="2.22" fill="#fff" opacity="0.45"/><circle cx="344.99" cy="341" r="1.46" fill="#fff" opacity="0.53"/><circle cx="597.73" cy="204.09" r="1.02" fill="#fff" opacity="0.79"/><circle cx="697.87" cy="481.13" r="1.11" fill="#fff" opacity="0.35"/><circle cx="666.74" cy="409.42" r="2.06" fill="#fff" opacity="0.39"/><circle cx="267.07" cy="459.36" r="1.08" fill="#fff" opacity="0.85"/><circle cx="745.04" cy="267.39" r="2.57" fill="#fff" opacity="0.84"/><circle cx="524.1" cy="291.07" r="0.82" fill="#fff" opacity="0.45"/><circle cx="523.66" cy="416.23" r="2.03" fill="#fff" opacity="0.44"/><circle cx="499.17" cy="250.66" r="2.18" fill="#fff" opacity="0.44"/><circle cx="630.08" cy="336.39" r="1.55" fill="#fff" opacity="0.84"/><circle cx="681.87" cy="521.4" r="0.81" fill="#fff" opacity="0.85"/><circle cx="305.34" cy="243.84" r="0.84" fill="#fff" opacity="0.84"/><circle cx="635.1" cy="622.4" r="1.93" fill="#fff" opacity="0.71"/><circle cx="496.1" cy="520.46" r="1.22" fill="#fff" opacity="0.64"/><circle cx="785.95" cy="477.45" r="2.2" fill="#fff" opacity="0.73"/><circle cx="452.3" cy="412.48" r="1.02" fill="#fff" opacity="0.85"/><circle cx="698.4" cy="552.28" r="2.59" fill="#fff" opacity="0.32"/><circle cx="739.35" cy="268.35" r="2.79" fill="#fff" opacity="0.87"/><circle cx="531.96" cy="263.02" r="1.3" fill="#fff" opacity="0.74"/><circle cx="665.79" cy="313.69" r="1.27" fill="#fff" opacity="0.54"/><circle cx="699.06" cy="299.43" r="1.5" fill="#fff" opacity="0.67"/><circle cx="493.9" cy="278.9" r="2.25" fill="#fff" opacity="0.55"/><circle cx="570.44" cy="534.31" r="2.77" fill="#fff" opacity="0.9"/><circle cx="304.45" cy="252.52" r="2.64" fill="#fff" opacity="0.42"/><circle cx="437.71" cy="344.77" r="1.79" fill="#fff" opacity="0.63"/><circle cx="555.03" cy="189.38" r="1.76" fill="#fff" opacity="0.41"/><circle cx="384.99" cy="442.96" r="2.13" fill="#fff" opacity="0.61"/><circle cx="294.42" cy="350.01" r="2.31" fill="#fff" opacity="0.52"/><circle cx="512.29" cy="374.74" r="1.4" fill="#fff" opacity="0.63"/><circle cx="594.07" cy="599.82" r="1.38" fill="#fff" opacity="0.44"/><circle cx="395.67" cy="284.45" r="0.95" fill="#fff" opacity="0.76"/><circle cx="651.56" cy="213.74" r="2.62" fill="#fff" opacity="0.71"/><circle cx="562.66" cy="402.63" r="2.32" fill="#fff" opacity="0.66"/><circle cx="461.21" cy="195.98" r="0.87" fill="#fff" opacity="0.38"/><circle cx="607.05" cy="448.72" r="0.97" fill="#fff" opacity="0.31"/><circle cx="258.47" cy="274.27" r="1.18" fill="#fff" opacity="0.38"/><circle cx="592.18" cy="593.28" r="1.29" fill="#fff" opacity="0.57"/><circle cx="726.37" cy="406.3" r="2.15" fill="#fff" opacity="0.76"/><circle cx="342.2" cy="501.97" r="0.92" fill="#fff" opacity="0.44"/><circle cx="627.41" cy="198.77" r="1.1" fill="#fff" opacity="0.86"/><circle cx="396.83" cy="407.58" r="1.22" fill="#fff" opacity="0.66"/><circle cx="556.15" cy="468.67" r="1.35" fill="#fff" opacity="0.69"/><circle cx="297.29" cy="356.71" r="2.79" fill="#fff" opacity="0.35"/><circle cx="353.66" cy="479.04" r="0.81" fill="#fff" opacity="0.3"/><circle cx="426.65" cy="448.12" r="1.27" fill="#fff" opacity="0.85"/><circle cx="561.52" cy="213.1" r="1.67" fill="#fff" opacity="0.81"/><circle cx="799.15" cy="363.67" r="2.12" fill="#fff" opacity="0.64"/><circle cx="390.37" cy="532.29" r="1.79" fill="#fff" opacity="0.6"/><circle cx="256.43" cy="331.32" r="2.13" fill="#fff" opacity="0.68"/><circle cx="471.12" cy="196.64" r="2.49" fill="#fff" opacity="0.89"/><circle cx="298.92" cy="473.17" r="2.71" fill="#fff" opacity="0.89"/>
    <g transform="translate(252 192) scale(1.08) translate(-18 -8)">
  <defs>
    <linearGradient id="pL" x1="0" y1="0" x2="0" y2="1"><stop offset="0" stop-color="#4A6FA0"/><stop offset="1" stop-color="#2C4A72"/></linearGradient>
    <linearGradient id="pR" x1="0" y1="0" x2="0" y2="1"><stop offset="0" stop-color="#22395C"/><stop offset="1" stop-color="#142640"/></linearGradient>
    <linearGradient id="pO" x1="0" y1="0" x2="1" y2="0"><stop offset="0" stop-color="#7DD3FC"/><stop offset="1" stop-color="#0EA5E9"/></linearGradient>
    <linearGradient id="pS" x1="0" y1="0" x2="1" y2="0"><stop offset="0" stop-color="#FF8A3D"/><stop offset="1" stop-color="#FF5A1F"/></linearGradient>
    <mask id="pK" maskUnits="userSpaceOnUse" x="0" y="0" width="512" height="512">
      <rect width="512" height="512" fill="#fff"/>
      <g transform="rotate(-16 256 290)"><path d="M42 290 A214 64 0 0 0 470 290" fill="none" stroke="#000" stroke-width="34"/></g>
    </mask>
  </defs>
  <g transform="rotate(-16 256 290)"><ellipse cx="256" cy="290" rx="214" ry="64" fill="none" stroke="url(#pO)" stroke-width="14" opacity=".45"/></g>
  <g mask="url(#pK)">
    <path d="M256 150 L206 222 L184 236 L98 382 L298 382 Z" fill="url(#pL)"/>
    <path d="M256 150 L298 382 L420 382 Z" fill="url(#pR)"/>
    <path d="M256 150 L215 209 L231 203 L243 217 L256 205 L267 213 Z" fill="#F8FAFC"/>
    <path d="M256 150 L267 213 L279 204 L289 211 L295 205 Z" fill="#B8C7DA"/>
  </g>
  <g transform="rotate(-16 256 290)">
    <path d="M42 290 A214 64 0 0 0 470 290" fill="none" stroke="url(#pO)" stroke-width="14" stroke-linecap="round"/>
    <circle cx="419.93" cy="331.14" r="28" fill="#38BDF8" opacity=".18"/>
    <circle cx="419.93" cy="331.14" r="13" fill="#F8FAFC" stroke="#38BDF8" stroke-width="6"/></g>
  <g fill="none" stroke="url(#pS)" stroke-width="12" stroke-linecap="round">
    <path d="M227.72 121.72 A40 40 0 0 1 284.28 121.72"/><path d="M207.92 101.92 A68 68 0 0 1 304.08 101.92" opacity=".7"/>
  </g>
  <circle cx="256" cy="150" r="8" fill="#FF5A1F"/></g>
    <path d="M277.77 740.26L277.77 740.26Q275.97 740.26 274.65 739.58Q273.32 738.91 272.6 737.67Q271.89 736.44 271.89 734.8L271.89 734.8L274.7 734.8Q274.7 736.23 275.52 737.04Q276.34 737.84 277.79 737.84L277.79 737.84Q279.27 737.84 280.08 737.01Q280.89 736.18 280.89 734.8L280.89 734.8L280.89 733.4Q280.89 731.94 280.08 731.15Q279.27 730.35 277.79 730.35L277.79 730.35L275.76 730.35L275.76 727.7L280.18 723.49L272.7 723.49L272.7 721.02L283.04 721.02L283.04 723.67L278.52 727.94Q280.73 728.09 282.11 729.39L282.11 729.39Q283.69 730.87 283.69 733.37L283.69 733.37L283.69 734.8Q283.69 736.44 282.97 737.67Q282.24 738.91 280.9 739.58Q279.56 740.26 277.77 740.26M296.75 740.26L296.75 740.26Q294.87 740.26 293.47 739.48Q292.07 738.7 291.29 737.28Q290.51 735.87 290.51 734.02L290.51 734.02Q290.51 732.62 290.93 731.2Q291.36 729.78 292.17 728.48L292.17 728.48L296.8 721.02L299.92 721.02L294.41 729.76L294.54 729.83Q295.06 729.08 295.93 728.68Q296.8 728.27 297.86 728.27L297.86 728.27Q299.4 728.27 300.54 729Q301.69 729.73 302.31 731.04Q302.93 732.36 302.93 734.15L302.93 734.15Q302.93 735.97 302.15 737.35Q301.37 738.73 300 739.49Q298.62 740.26 296.75 740.26M296.72 737.84L296.72 737.84Q298.28 737.84 299.22 736.83Q300.15 735.81 300.15 734.15L300.15 734.15Q300.15 732.49 299.22 731.47Q298.28 730.46 296.72 730.46L296.72 730.46Q295.16 730.46 294.22 731.47Q293.29 732.49 293.29 734.15L293.29 734.15Q293.29 735.81 294.22 736.83Q295.16 737.84 296.72 737.84M315.44 728.3L315.44 728.3Q313.7 728.3 312.62 727.26Q311.54 726.22 311.54 724.53L311.54 724.53Q311.54 722.84 312.62 721.8Q313.7 720.76 315.44 720.76L315.44 720.76Q317.21 720.76 318.27 721.8Q319.34 722.84 319.34 724.53L319.34 724.53Q319.34 726.22 318.27 727.26Q317.21 728.3 315.44 728.3M315.41 726.87L315.41 726.87Q316.43 726.87 317.05 726.22Q317.68 725.57 317.68 724.53L317.68 724.53Q317.68 723.46 317.05 722.81Q316.43 722.16 315.41 722.16L315.41 722.16Q314.43 722.16 313.81 722.81Q313.2 723.46 313.2 724.53L313.2 724.53Q313.2 725.57 313.81 726.22Q314.43 726.87 315.41 726.87M333.93 740.26L333.93 740.26Q332.13 740.26 330.81 739.58Q329.48 738.91 328.76 737.67Q328.05 736.44 328.05 734.8L328.05 734.8L330.86 734.8Q330.86 736.23 331.68 737.04Q332.5 737.84 333.95 737.84L333.95 737.84Q335.43 737.84 336.24 737.01Q337.05 736.18 337.05 734.8L337.05 734.8L337.05 733.4Q337.05 731.94 336.24 731.15Q335.43 730.35 333.95 730.35L333.95 730.35L331.92 730.35L331.92 727.7L336.34 723.49L328.86 723.49L328.86 721.02L339.2 721.02L339.2 723.67L334.68 727.94Q336.89 728.09 338.27 729.39L338.27 729.39Q339.85 730.87 339.85 733.37L339.85 733.37L339.85 734.8Q339.85 736.44 339.13 737.67Q338.4 738.91 337.06 739.58Q335.72 740.26 333.93 740.26M352.88 740.26L352.88 740.26Q351.06 740.26 349.73 739.64Q348.41 739.01 347.68 737.86Q346.95 736.7 346.95 735.16L346.95 735.16Q346.95 733.45 347.89 732.23L347.89 732.23Q348.77 731.08 350.57 730.2L350.57 730.2Q349.03 729.39 348.23 728.38L348.23 728.38Q347.29 727.21 347.29 725.57L347.29 725.57Q347.29 724.14 347.98 723.05Q348.67 721.96 349.92 721.35Q351.16 720.73 352.88 720.73Q354.6 720.73 355.84 721.35Q357.09 721.96 357.77 723.05Q358.44 724.14 358.44 725.57L358.44 725.57Q358.44 727.23 357.53 728.38L357.53 728.38Q356.73 729.34 355.22 730.2L355.22 730.2Q357.04 731.11 357.9 732.23L357.9 732.23Q358.81 733.47 358.81 735.16L358.81 735.16Q358.81 737.5 357.21 738.88Q355.61 740.26 352.88 740.26M352.88 737.82L352.88 737.82Q354.34 737.82 355.19 737.05Q356.05 736.28 356.05 735.03L356.05 735.03Q356.05 734.02 355.48 733.15Q354.91 732.28 353.89 731.78L353.89 731.78L352.88 731.32L351.81 731.81Q350.83 732.28 350.27 733.14Q349.71 733.99 349.71 734.98L349.71 734.98Q349.71 736.26 350.57 737.04Q351.42 737.82 352.88 737.82M352.18 728.79L352.88 729.11L353.5 728.82Q354.54 728.33 355.12 727.51Q355.69 726.69 355.69 725.7L355.69 725.7Q355.69 724.53 354.93 723.85Q354.18 723.18 352.88 723.18Q351.58 723.18 350.81 723.87Q350.05 724.56 350.05 725.73L350.05 725.73Q350.05 726.69 350.62 727.51Q351.19 728.33 352.18 728.79L352.18 728.79M370.35 727.91L367.91 727.91L369.99 719.82L373.73 719.82L370.35 727.91M390.4 740.26L390.4 740.26Q388.47 740.26 387.1 739.62Q385.72 738.99 384.96 737.8Q384.21 736.62 384.21 734.98L384.21 734.98L386.99 734.98Q386.99 736.28 387.9 737.02Q388.81 737.76 390.42 737.76L390.42 737.76Q391.93 737.76 392.79 737.04Q393.65 736.31 393.65 735.03L393.65 735.03Q393.65 733.97 393.06 733.19Q392.48 732.41 391.39 732.12L391.39 732.12L388.99 731.42Q386.91 730.82 385.78 729.38Q384.65 727.94 384.65 725.93L384.65 725.93Q384.65 724.37 385.35 723.2Q386.06 722.03 387.36 721.38Q388.66 720.73 390.42 720.73L390.42 720.73Q393.02 720.73 394.6 722.14Q396.17 723.54 396.2 725.91L396.2 725.91L393.39 725.91Q393.39 724.66 392.59 723.95Q391.8 723.23 390.37 723.23L390.37 723.23Q388.99 723.23 388.21 723.89Q387.43 724.56 387.43 725.75L387.43 725.75Q387.43 726.82 388.02 727.6Q388.6 728.38 389.7 728.69L389.7 728.69L392.11 729.42Q394.19 729.99 395.31 731.45Q396.43 732.9 396.43 734.93L396.43 734.93Q396.43 736.52 395.68 737.73Q394.92 738.93 393.57 739.6Q392.22 740.26 390.4 740.26M427.76 733.29L427.76 733.29Q426.72 733.29 426.1 732.68Q425.47 732.07 425.47 731.03L425.47 731.03Q425.47 729.96 426.1 729.33Q426.72 728.69 427.76 728.69L427.76 728.69Q428.83 728.69 429.44 729.33Q430.05 729.96 430.05 731.03L430.05 731.03Q430.05 732.07 429.44 732.68Q428.83 733.29 427.76 733.29M464.84 740L461.82 740L468.63 723.59L462 723.59L462 726.38L459.22 726.38L459.22 721.02L471.41 721.02L471.41 723.72L464.84 740M483.92 740.26L483.92 740.26Q482.13 740.26 480.81 739.56Q479.5 738.86 478.77 737.6Q478.04 736.33 478.04 734.64L478.04 734.64L478.04 726.38Q478.04 724.66 478.76 723.41Q479.47 722.16 480.8 721.46Q482.13 720.76 483.92 720.76L483.92 720.76Q485.74 720.76 487.05 721.46Q488.37 722.16 489.08 723.41Q489.8 724.66 489.8 726.38L489.8 726.38L489.8 734.64Q489.8 736.33 489.07 737.6Q488.34 738.86 487.03 739.56Q485.71 740.26 483.92 740.26M483.92 737.84L483.92 737.84Q485.38 737.84 486.25 736.96Q487.12 736.07 487.12 734.64L487.12 734.64L487.12 726.38Q487.12 724.95 486.25 724.06Q485.38 723.18 483.92 723.18L483.92 723.18Q482.46 723.18 481.59 724.06Q480.72 724.95 480.72 726.38L480.72 726.38L480.72 734.64Q480.72 736.07 481.59 736.96Q482.46 737.84 483.92 737.84M483.92 732.12L483.92 732.12Q483.19 732.12 482.74 731.65Q482.28 731.19 482.28 730.43L482.28 730.43Q482.28 729.7 482.74 729.25Q483.19 728.79 483.92 728.79L483.92 728.79Q484.65 728.79 485.1 729.25Q485.56 729.7 485.56 730.43L485.56 730.43Q485.56 731.19 485.1 731.65Q484.65 732.12 483.92 732.12M502.64 728.3L502.64 728.3Q500.9 728.3 499.82 727.26Q498.74 726.22 498.74 724.53L498.74 724.53Q498.74 722.84 499.82 721.8Q500.9 720.76 502.64 720.76L502.64 720.76Q504.41 720.76 505.47 721.8Q506.54 722.84 506.54 724.53L506.54 724.53Q506.54 726.22 505.47 727.26Q504.41 728.3 502.64 728.3M502.61 726.87L502.61 726.87Q503.63 726.87 504.25 726.22Q504.88 725.57 504.88 724.53L504.88 724.53Q504.88 723.46 504.25 722.81Q503.63 722.16 502.61 722.16L502.61 722.16Q501.63 722.16 501.01 722.81Q500.4 723.46 500.4 724.53L500.4 724.53Q500.4 725.57 501.01 726.22Q501.63 726.87 502.61 726.87M527.37 740L515.77 740L515.77 737.22L521.65 731.16Q523 729.76 523.63 728.63Q524.27 727.49 524.27 726.38L524.27 726.38Q524.27 724.92 523.48 724.09Q522.69 723.26 521.31 723.26L521.31 723.26Q519.8 723.26 518.93 724.13Q518.06 725 518.06 726.51L518.06 726.51L515.25 726.51Q515.3 724.74 516.06 723.45Q516.81 722.16 518.16 721.46Q519.51 720.76 521.33 720.76L521.33 720.76Q523.08 720.76 524.38 721.44Q525.68 722.11 526.38 723.33Q527.08 724.56 527.08 726.22L527.08 726.22Q527.08 727.91 526.21 729.52Q525.34 731.13 523.36 733.11L523.36 733.11L519.07 737.45L527.37 737.45L527.37 740M540.11 740.26L540.11 740.26Q538.23 740.26 536.83 739.48Q535.43 738.7 534.65 737.28Q533.87 735.87 533.87 734.02L533.87 734.02Q533.87 732.62 534.29 731.2Q534.72 729.78 535.53 728.48L535.53 728.48L540.16 721.02L543.28 721.02L537.77 729.76L537.9 729.83Q538.42 729.08 539.29 728.68Q540.16 728.27 541.22 728.27L541.22 728.27Q542.76 728.27 543.9 729Q545.05 729.73 545.67 731.04Q546.29 732.36 546.29 734.15L546.29 734.15Q546.29 735.97 545.51 737.35Q544.73 738.73 543.36 739.49Q541.98 740.26 540.11 740.26M540.08 737.84L540.08 737.84Q541.64 737.84 542.58 736.83Q543.51 735.81 543.51 734.15L543.51 734.15Q543.51 732.49 542.58 731.47Q541.64 730.46 540.08 730.46L540.08 730.46Q538.52 730.46 537.58 731.47Q536.65 732.49 536.65 734.15L536.65 734.15Q536.65 735.81 537.58 736.83Q538.52 737.84 540.08 737.84M557.55 727.91L555.11 727.91L557.19 719.82L560.93 719.82L557.55 727.91M575.6 740L572.32 740L570.27 721.02L572.79 721.02L574.06 734.64Q574.11 735.16 574.15 735.79Q574.19 736.41 574.23 737.01Q574.27 737.61 574.27 738.05L574.27 738.05Q574.32 737.61 574.37 737.01Q574.43 736.41 574.49 735.79Q574.56 735.16 574.63 734.64L574.63 734.64L576.27 721.02L578.87 721.02L580.41 734.64Q580.46 735.16 580.52 735.79Q580.59 736.41 580.67 737.01Q580.74 737.61 580.77 738.05L580.77 738.05Q580.8 737.61 580.83 737.01Q580.87 736.41 580.93 735.79Q580.98 735.16 581.03 734.64L581.03 734.64L582.33 721.02L584.77 721.02L582.64 740L579.39 740L577.86 726.19Q577.81 725.65 577.75 725.04Q577.7 724.43 577.65 723.84Q577.6 723.26 577.55 722.87L577.55 722.87Q577.52 723.26 577.47 723.84Q577.42 724.43 577.36 725.04Q577.31 725.65 577.23 726.19L577.23 726.19L575.6 740M614.96 733.29L614.96 733.29Q613.92 733.29 613.3 732.68Q612.67 732.07 612.67 731.03L612.67 731.03Q612.67 729.96 613.3 729.33Q613.92 728.69 614.96 728.69L614.96 728.69Q616.03 728.69 616.64 729.33Q617.25 729.96 617.25 731.03L617.25 731.03Q617.25 732.07 616.64 732.68Q616.03 733.29 614.96 733.29M657.78 740L655 740L655 736.05L646.5 736.05L646.5 731.84L653.88 721.02L657 721.02L649.2 732.51L649.2 733.53L655 733.53L655 729.08L657.78 729.08L657.78 740M670.76 740L667.74 740L674.55 723.59L667.92 723.59L667.92 726.38L665.14 726.38L665.14 721.02L677.33 721.02L677.33 723.72L670.76 740M689.84 740.26L689.84 740.26Q688.05 740.26 686.73 739.56Q685.42 738.86 684.69 737.6Q683.96 736.33 683.96 734.64L683.96 734.64L683.96 726.38Q683.96 724.66 684.68 723.41Q685.39 722.16 686.72 721.46Q688.05 720.76 689.84 720.76L689.84 720.76Q691.66 720.76 692.97 721.46Q694.29 722.16 695 723.41Q695.72 724.66 695.72 726.38L695.72 726.38L695.72 734.64Q695.72 736.33 694.99 737.6Q694.26 738.86 692.95 739.56Q691.63 740.26 689.84 740.26M689.84 737.84L689.84 737.84Q691.3 737.84 692.17 736.96Q693.04 736.07 693.04 734.64L693.04 734.64L693.04 726.38Q693.04 724.95 692.17 724.06Q691.3 723.18 689.84 723.18L689.84 723.18Q688.38 723.18 687.51 724.06Q686.64 724.95 686.64 726.38L686.64 726.38L686.64 734.64Q686.64 736.07 687.51 736.96Q688.38 737.84 689.84 737.84M689.84 732.12L689.84 732.12Q689.11 732.12 688.66 731.65Q688.2 731.19 688.2 730.43L688.2 730.43Q688.2 729.7 688.66 729.25Q689.11 728.79 689.84 728.79L689.84 728.79Q690.57 728.79 691.02 729.25Q691.48 729.7 691.48 730.43L691.48 730.43Q691.48 731.19 691.02 731.65Q690.57 732.12 689.84 732.12M708.48 740L705.36 740L710.87 731.26L710.74 731.19Q710.22 731.94 709.35 732.34Q708.48 732.75 707.42 732.75L707.42 732.75Q705.88 732.75 704.74 732.02Q703.59 731.29 702.97 729.96Q702.35 728.64 702.35 726.87L702.35 726.87Q702.35 725.02 703.13 723.66Q703.91 722.29 705.3 721.53Q706.69 720.76 708.53 720.76L708.53 720.76Q710.41 720.76 711.81 721.54Q713.21 722.32 713.99 723.72Q714.77 725.13 714.77 727L714.77 727Q714.77 728.38 714.35 729.81Q713.92 731.24 713.11 732.54L713.11 732.54L708.48 740M708.56 730.56L708.56 730.56Q710.12 730.56 711.06 729.55Q711.99 728.53 711.99 726.87L711.99 726.87Q711.99 725.21 711.06 724.19Q710.12 723.18 708.56 723.18L708.56 723.18Q707 723.18 706.06 724.19Q705.13 725.21 705.13 726.87L705.13 726.87Q705.13 728.53 706.06 729.55Q707 730.56 708.56 730.56M742.26 740L739.73 740L739.73 725.7L742.07 725.7L742.07 727.52L742.23 727.52Q742.36 726.69 742.85 726.14L742.85 726.14Q743.5 725.44 744.6 725.44L744.6 725.44Q745.77 725.44 746.42 726.35L746.42 726.35Q746.75 726.84 746.91 727.52L746.91 727.52L747.01 727.52Q747.14 726.69 747.66 726.14L747.66 726.14Q748.31 725.44 749.43 725.44L749.43 725.44Q750.76 725.44 751.51 726.44Q752.27 727.44 752.27 729.11L752.27 729.11L752.27 740L749.77 740L749.77 729.18Q749.77 728.38 749.42 727.94Q749.07 727.49 748.42 727.49Q747.77 727.49 747.42 727.92Q747.07 728.35 747.07 729.16L747.07 729.16L747.07 740L744.96 740L744.96 729.18Q744.96 728.35 744.6 727.92Q744.23 727.49 743.56 727.49L743.56 727.49Q742.91 727.49 742.58 727.92Q742.26 728.35 742.26 729.16L742.26 729.16L742.26 740" fill="#7DD3FC"/>
  </g>
  <path d="M218.35 225.29L211.43 231.77L176.02 193.97L189.25 181.57L226.65 208.39L227.62 207.48L203.29 168.42L216.52 156.02L251.94 193.82L245.02 200.3L214.52 167.74L213.54 168.65L237.57 207.28L225.8 218.31L188.81 191.82L187.84 192.73L218.35 225.29M275.15 177.29L267.25 183.03L236.83 141.11L244.73 135.37L275.15 177.29M306.5 158.42L306.5 158.42Q301.32 161.43 296.27 161.89Q291.23 162.35 286.98 160.2Q282.73 158.05 279.9 153.19L279.9 153.19L278.86 151.4L287.17 146.56L288.21 148.35Q290.56 152.37 294.23 152.94Q297.89 153.5 302.18 151L302.18 151Q306.52 148.47 307.66 145.49Q308.8 142.52 307.23 139.83L307.23 139.83Q306.15 137.98 304.43 137.44Q302.7 136.91 300.26 137.34Q297.82 137.78 294.57 138.82L294.57 138.82L292.91 139.36Q287.71 141.02 283.5 141.37Q279.3 141.72 276.05 140.19Q272.8 138.65 270.42 134.56L270.42 134.56Q268.03 130.47 268.29 126.42Q268.54 122.38 271.18 118.75Q273.81 115.11 278.61 112.32L278.61 112.32Q283.41 109.52 288.1 108.97Q292.79 108.43 296.81 110.41Q300.83 112.39 303.66 117.25L303.66 117.25L304.78 119.16L296.47 124.01L295.35 122.09Q293.86 119.53 291.96 118.54Q290.05 117.55 287.77 117.9Q285.49 118.24 282.93 119.73L282.93 119.73Q279.1 121.97 278.11 124.47Q277.13 126.97 278.58 129.46L278.58 129.46Q279.55 131.13 281.08 131.77Q282.62 132.42 284.79 132.18Q286.96 131.94 289.98 130.96L289.98 130.96L291.64 130.42Q297.03 128.65 301.51 128.18Q305.99 127.71 309.5 129.18Q313.01 130.64 315.4 134.73L315.4 134.73Q317.78 138.83 317.51 143.14Q317.24 147.45 314.46 151.42Q311.68 155.4 306.5 158.42M346.5 136.86L337.61 140.9L316.14 93.76L325.03 89.72L346.5 136.86M383 123.91L383 123.91Q373.73 126.99 366.56 123.72Q359.39 120.45 356.24 110.97L356.24 110.97L352.32 99.18Q349.17 89.7 352.95 82.78Q356.74 75.87 366.01 72.79L366.01 72.79Q375.28 69.71 382.45 72.98Q389.62 76.25 392.77 85.73L392.77 85.73L396.69 97.53Q399.84 107.01 396.06 113.92Q392.27 120.83 383 123.91M380.25 115.63L380.25 115.63Q385.44 113.9 387.32 109.92Q389.19 105.95 387.51 100.89L387.51 100.89L383.41 88.53Q381.73 83.48 377.84 81.41Q373.96 79.35 368.76 81.08L368.76 81.08Q363.64 82.78 361.73 86.77Q359.82 90.76 361.5 95.81L361.5 95.81L365.6 108.17Q367.29 113.23 371.2 115.28Q375.12 117.33 380.25 115.63M367.37 68.91L359.5 71.52L361.39 60.76L371.64 57.35L367.37 68.91M429.37 110.28L419.9 111.98L410.74 61L429.02 57.71L447.13 100.32L448.44 100.09L440.46 55.66L449.93 53.96L459.09 104.94L440.8 108.23L422.7 65.62L421.39 65.85L429.37 110.28M525.17 102.21L503.87 101.53L504.14 92.95L510.95 93.17L512.05 58.55L505.25 58.34L505.52 49.76L526.82 50.44Q537.25 50.77 542.52 56.23Q547.79 61.7 547.45 72.12L547.45 72.12L547.14 81.89Q546.81 92.32 541.2 97.43Q535.6 102.54 525.17 102.21L525.17 102.21M521.81 59.16L520.72 93.18L525.6 93.34Q531.52 93.53 534.35 90.51Q537.19 87.49 537.37 81.87L537.37 81.87L537.7 71.52Q537.88 65.82 535.24 62.66Q532.61 59.51 526.69 59.32L526.69 59.32L521.81 59.16M583.09 109.26L583.09 109.26Q573.47 107.56 568.72 101.28Q563.97 94.99 565.7 85.15L565.7 85.15L567.86 72.91Q569.6 63.07 576.22 58.79Q582.83 54.51 592.45 56.21L592.45 56.21Q602.07 57.91 606.82 64.19Q611.57 70.48 609.84 80.32L609.84 80.32L607.68 92.56Q605.94 102.4 599.32 106.68Q592.71 110.96 583.09 109.26M584.61 100.66L584.61 100.66Q590 101.61 593.54 99.01Q597.08 96.4 598.01 91.16L598.01 91.16L600.27 78.33Q601.2 73.08 598.76 69.42Q596.33 65.76 590.93 64.81L590.93 64.81Q585.61 63.87 582.04 66.47Q578.46 69.07 577.53 74.32L577.53 74.32L575.27 87.14Q574.34 92.39 576.81 96.06Q579.29 99.72 584.61 100.66M630.31 119.01L621.37 115.88L638.5 67L655.61 72.99L649.13 118.55L650.39 118.99L673.76 79.35L690.87 85.35L673.75 134.23L664.81 131.1L679.56 88.99L678.3 88.55L655.17 127.73L639.95 122.39L646.32 77.34L645.06 76.9L630.31 119.01M707.66 152.88L707.66 152.88Q702.07 149.83 699.19 145.61Q696.31 141.39 696.27 136.43Q696.23 131.48 699.06 126.28L699.06 126.28L715.14 96.78L723.71 101.45L707.5 131.22Q705.23 135.37 706.29 139.07Q707.36 142.77 711.84 145.21L711.84 145.21Q716.32 147.65 720 146.54Q723.69 145.43 725.95 141.27L725.95 141.27L742.17 111.51L750.74 116.18L734.67 145.68Q731.84 150.88 727.66 153.53Q723.47 156.18 718.36 156.05Q713.25 155.92 707.66 152.88M759.95 185.43L752.1 179.62L762.71 165.29L768.77 127.51L777.52 133.98L773.1 158.34L774.17 159.14L796.19 147.81L804.93 154.29L770.56 171.1L759.95 185.43M797.11 218.8L797.11 218.8Q790.1 211.99 789.71 204.12Q789.31 196.25 796.27 189.09L796.27 189.09L804.94 180.18Q811.9 173.01 819.78 173.19Q827.66 173.37 834.66 180.18L834.66 180.18Q841.67 186.99 842.06 194.86Q842.46 202.73 835.5 209.89L835.5 209.89L826.83 218.8Q819.87 225.97 811.99 225.79Q804.11 225.61 797.11 218.8M803.19 212.54L803.19 212.54Q807.12 216.36 811.51 216.19Q815.91 216.03 819.62 212.21L819.62 212.21L828.7 202.87Q832.42 199.05 832.46 194.65Q832.5 190.26 828.58 186.44L828.58 186.44Q824.7 182.67 820.28 182.81Q815.86 182.95 812.15 186.77L812.15 186.77L803.07 196.11Q799.35 199.93 799.34 204.35Q799.32 208.77 803.19 212.54" fill="#F8FAFC"/>
  <path d="M288.3 890.92L279.94 885.86L302.17 849.15L289.26 841.33L293.86 833.73L328.04 854.43L323.44 862.02L310.53 854.21L288.3 890.92M323.99 909.84L315.2 905.57L337.85 858.98L346.64 863.25L323.99 909.84M361.26 925.4L352.12 921.95L367.27 881.8L353.15 876.47L356.28 868.16L393.67 882.26L390.53 890.57L376.41 885.24L361.26 925.4M392.06 935.51L382.3 933.03L408.25 886.17L424.74 890.36L425.2 943.92L415.44 941.44L415.52 929.71L397.59 925.15L392.06 935.51M414.34 894.06L402.03 916.97L415.52 920.39L415.63 894.39L414.34 894.06M449.67 947.68L440.11 946.54L446.25 895.11L464.69 897.31L469.56 943.35L470.88 943.51L476.23 898.69L485.78 899.82L479.64 951.26L461.2 949.06L456.33 903.02L455.01 902.86L449.67 947.68M531.61 951.73L521.58 952.45L531.43 899.81L548.41 898.58L565.71 949.27L555.68 949.99L552.05 938.83L533.6 940.16L531.61 951.73M539.7 905.37L535.24 930.99L549.11 929.99L541.03 905.27L539.7 905.37M597.37 943.67L587.77 945.45L579.91 903.26L565.07 906.02L563.44 897.29L602.73 889.98L604.36 898.71L589.51 901.47L597.37 943.67M659.23 927.04L627.27 936.9L611.99 887.41L621.32 884.53L633.98 925.54L656.61 918.56L659.23 927.04M679.76 918.94L670.57 923.03L661.96 870.17L677.51 863.25L711 905.05L701.81 909.14L694.61 899.87L677.7 907.38L679.76 918.94M671.63 872.59L676.13 898.2L688.84 892.55L672.84 872.05L671.63 872.59M740.23 889.39L740.23 889.39Q735.09 892.49 730.06 893.02Q725.02 893.56 720.74 891.47Q716.46 889.39 713.55 884.57L713.55 884.57L712.48 882.8L720.72 877.83L721.79 879.6Q724.19 883.6 727.87 884.1Q731.55 884.61 735.79 882.04L735.79 882.04Q740.1 879.44 741.19 876.45Q742.28 873.46 740.67 870.8L740.67 870.8Q739.57 868.96 737.83 868.45Q736.1 867.94 733.66 868.42Q731.23 868.89 727.99 869.98L727.99 869.98L726.35 870.54Q721.17 872.28 716.97 872.7Q712.77 873.12 709.5 871.63Q706.23 870.15 703.78 866.09L703.78 866.09Q701.34 862.04 701.53 857.99Q701.72 853.94 704.3 850.27Q706.88 846.59 711.63 843.73L711.63 843.73Q716.39 840.86 721.07 840.24Q725.75 839.62 729.8 841.54Q733.86 843.46 736.76 848.27L736.76 848.27L737.91 850.17L729.67 855.14L728.52 853.24Q726.99 850.71 725.08 849.75Q723.16 848.79 720.88 849.17Q718.6 849.55 716.07 851.08L716.07 851.08Q712.27 853.37 711.32 855.89Q710.38 858.4 711.87 860.87L711.87 860.87Q712.86 862.52 714.4 863.14Q715.95 863.77 718.12 863.5Q720.29 863.22 723.29 862.19L723.29 862.19L724.94 861.63Q730.3 859.77 734.78 859.23Q739.25 858.7 742.78 860.11Q746.31 861.52 748.76 865.58L748.76 865.58Q751.2 869.63 751 873.95Q750.79 878.26 748.08 882.28Q745.36 886.3 740.23 889.39" fill="#F8FAFC"/>
  <polygon points="64,492 68.94,505.2 83.02,505.82 71.99,514.6 75.76,528.18 64,520.4 52.24,528.18 56.01,514.6 44.98,505.82 59.06,505.2" fill="#FF5A1F"/><polygon points="960,492 964.94,505.2 979.02,505.82 967.99,514.6 971.76,528.18 960,520.4 948.24,528.18 952.01,514.6 940.98,505.82 955.06,505.2" fill="#FF5A1F"/></svg>
